<?xml version="1.0" standalone="no"?>
<!DOCTYPE svg PUBLIC "-//W3C//DTD SVG 20010904//EN"
 "http://www.w3.org/TR/2001/REC-SVG-20010904/DTD/svg10.dtd">
<svg version="1.0" xmlns="http://www.w3.org/2000/svg"
 width="219.000000pt" height="220.000000pt" viewBox="0 0 219.000000 220.000000"
 preserveAspectRatio="xMidYMid meet">

<g transform="translate(0.000000,220.000000) scale(0.100000,-0.100000)"
fill="#000000" stroke="none">
<path d="M1022 2040 l-23 -31 23 -29 c13 -16 26 -29 29 -29 3 -1 14 15 25 34
l19 35 -26 25 -25 25 -22 -30z"/>
<path d="M889 2037 c-9 -20 -8 -30 6 -51 22 -34 31 -33 44 5 12 35 9 44 -20
59 -16 9 -21 7 -30 -13z"/>
<path d="M1160 2030 c-11 -27 -9 -39 21 -117 31 -81 34 -84 41 -57 20 70 8
144 -30 185 -19 20 -19 20 -32 -11z"/>
<path d="M1272 2030 c-21 -17 -22 -22 -10 -44 l13 -24 30 24 c30 24 30 24 10
43 -20 19 -20 19 -43 1z"/>
<path d="M795 2019 c-7 -10 21 -38 38 -39 12 0 8 18 -9 34 -18 19 -21 19 -29
5z"/>
<path d="M1445 2020 c-4 -6 -3 -16 3 -22 6 -6 12 -6 17 2 4 6 3 16 -3 22 -6 6
-12 6 -17 -2z"/>
<path d="M712 1971 c2 -33 9 -48 26 -59 l24 -15 -7 39 c-4 21 -16 48 -27 59
-19 20 -19 20 -16 -24z"/>
<path d="M1487 1977 c-56 -48 -48 -74 13 -42 23 12 30 22 30 45 0 17 -1 30 -2
30 -2 -1 -20 -15 -41 -33z"/>
<path d="M1361 1976 c-19 -21 -22 -30 -16 -70 9 -57 26 -49 50 25 23 69 8 89
-34 45z"/>
<path d="M1085 1936 c-10 -26 -16 -48 -14 -49 37 -28 69 -46 69 -38 0 20 -24
116 -31 124 -3 5 -15 -12 -24 -37z"/>
<path d="M640 1950 c0 -13 7 -20 20 -20 23 0 26 10 8 28 -18 18 -28 15 -28 -8z"/>
<path d="M790 1936 c0 -30 11 -38 66 -46 37 -6 41 -4 36 12 -4 19 -36 39 -79
52 -20 6 -23 4 -23 -18z"/>
<path d="M967 1936 c-21 -32 -21 -35 4 -65 17 -21 22 -22 30 -10 21 32 22 61
2 81 -20 19 -20 19 -36 -6z"/>
<path d="M1568 1939 c-35 -18 -38 -23 -38 -62 l0 -42 41 41 c27 27 40 48 37
62 -3 20 -3 20 -40 1z"/>
<path d="M560 1915 c0 -8 9 -19 20 -25 18 -9 20 -8 20 15 0 18 -5 25 -20 25
-11 0 -20 -7 -20 -15z"/>
<path d="M1277 1888 c-8 -18 -17 -52 -21 -76 -6 -40 -5 -42 13 -32 34 18 47
45 43 94 -5 54 -14 58 -35 14z"/>
<path d="M500 1883 c0 -19 65 -91 75 -82 12 13 -14 62 -43 81 -31 19 -32 19
-32 1z"/>
<path d="M630 1878 c0 -13 10 -39 21 -58 20 -32 23 -33 30 -15 14 37 10 74
-10 85 -30 15 -41 12 -41 -12z"/>
<path d="M1458 1879 c-48 -25 -52 -33 -33 -69 12 -24 19 -28 33 -21 15 8 48
98 40 106 -2 2 -20 -5 -40 -16z"/>
<path d="M1648 1873 c-23 -4 -28 -10 -33 -46 -11 -86 -10 -167 3 -167 4 0 20
42 36 93 39 128 39 127 30 126 -5 -1 -21 -4 -36 -6z"/>
<path d="M820 1862 c0 -5 9 -17 20 -27 11 -10 20 -13 20 -7 0 6 3 17 6 26 5
12 0 16 -20 16 -14 0 -26 -4 -26 -8z"/>
<path d="M420 1836 c0 -17 12 -34 35 -52 41 -31 50 -28 40 15 -11 52 -75 83
-75 37z"/>
<path d="M732 1807 c10 -56 22 -71 81 -106 l37 -23 0 49 c0 44 -4 53 -37 85
-21 19 -50 38 -64 42 l-26 6 9 -53z"/>
<path d="M891 1828 c0 -24 8 -39 30 -56 l30 -24 -7 44 c-7 48 -19 68 -40 68
-9 0 -14 -11 -13 -32z"/>
<path d="M1045 1818 c-5 -23 -2 -35 16 -54 l23 -25 18 36 c22 41 19 49 -21 63
-28 10 -30 9 -36 -20z"/>
<path d="M1717 1833 c-2 -5 -7 -21 -11 -38 l-8 -30 26 24 c14 14 26 30 26 38
0 14 -26 18 -33 6z"/>
<path d="M1547 1806 c-10 -8 -15 -20 -11 -29 7 -19 34 -31 34 -14 0 7 3 22 6
35 7 25 -3 28 -29 8z"/>
<path d="M1367 1792 c-10 -11 -17 -36 -17 -61 0 -40 1 -42 27 -39 36 4 51 44
33 87 -14 36 -21 38 -43 13z"/>
<path d="M530 1788 c0 -26 23 -93 34 -100 24 -16 36 -7 36 26 0 27 -7 39 -35
60 -22 17 -35 22 -35 14z"/>
<path d="M1157 1792 c-20 -34 -27 -82 -16 -106 14 -31 23 -33 41 -7 17 24 11
108 -8 115 -7 3 -15 2 -17 -2z"/>
<path d="M1745 1766 c-42 -28 -85 -82 -73 -91 12 -9 79 -12 84 -3 7 10 44 128
40 128 0 0 -24 -15 -51 -34z"/>
<path d="M625 1769 c27 -86 33 -94 80 -122 26 -15 48 -27 50 -25 1 2 -4 24
-12 49 -10 36 -23 53 -56 75 -71 49 -70 49 -62 23z"/>
<path d="M340 1768 c0 -2 6 -23 14 -48 l13 -45 63 -3 c35 -2 67 1 73 7 14 14
-58 78 -96 85 -30 6 -67 8 -67 4z"/>
<path d="M1477 1742 c-18 -20 -23 -87 -7 -97 13 -8 110 43 110 58 0 12 -62 57
-78 57 -5 0 -16 -8 -25 -18z"/>
<path d="M1267 1702 l-38 -38 21 -19 c20 -18 21 -18 41 2 15 14 20 30 17 57
l-3 37 -38 -39z"/>
<path d="M1805 1703 c-8 -20 -14 -38 -12 -40 2 -2 24 15 48 36 l44 40 -32 1
c-28 0 -35 -5 -48 -37z"/>
<path d="M1011 1699 c-15 -44 -14 -50 15 -83 23 -26 27 -27 54 -16 17 7 30 14
30 17 0 8 -75 112 -82 113 -3 0 -11 -14 -17 -31z"/>
<path d="M897 1713 c-12 -12 -7 -53 10 -86 l16 -32 13 30 c7 17 13 35 14 41 0
15 -45 56 -53 47z"/>
<path d="M1890 1673 c-14 -3 -37 -16 -53 -31 -23 -22 -25 -27 -11 -35 23 -13
72 11 90 44 8 16 11 28 7 28 -5 -1 -19 -4 -33 -6z"/>
<path d="M266 1635 c13 -20 25 -25 55 -25 22 0 39 4 39 8 0 20 -39 42 -74 42
l-36 0 16 -25z"/>
<path d="M586 1635 c13 -20 25 -25 55 -25 22 0 39 2 39 5 0 8 -78 45 -95 45
-14 0 -14 -3 1 -25z"/>
<path d="M804 1629 c11 -56 51 -144 67 -147 12 -2 18 8 23 38 8 52 -30 125
-70 133 -24 4 -26 2 -20 -24z"/>
<path d="M1315 1620 c-24 -37 -25 -44 -14 -83 17 -57 20 -59 55 -38 25 15 33
29 42 77 17 83 17 84 -23 84 -30 0 -38 -6 -60 -40z"/>
<path d="M420 1633 c13 -9 48 -19 78 -21 53 -5 54 -4 43 17 -10 18 -21 21 -79
21 -65 0 -66 0 -42 -17z"/>
<path d="M1510 1612 c-41 -28 -56 -45 -58 -65 -2 -19 1 -26 10 -23 7 3 36 12
64 21 53 16 64 30 64 83 0 30 -16 27 -80 -16z"/>
<path d="M1630 1609 c-26 -49 -26 -49 10 -49 20 0 42 11 66 33 l36 33 -46 11
-47 10 -19 -38z"/>
<path d="M1167 1602 l-28 -29 33 -41 c18 -23 36 -41 40 -41 9 -1 38 53 38 72
0 7 -13 25 -28 40 l-28 27 -27 -28z"/>
<path d="M965 1570 c-6 -25 -3 -37 13 -52 l20 -20 7 32 c6 25 3 37 -13 52
l-20 20 -7 -32z"/>
<path d="M1899 1580 c-10 -8 -21 -28 -25 -44 -6 -24 -4 -27 12 -23 11 4 31 9
47 13 28 6 47 30 47 59 0 20 -56 17 -81 -5z"/>
<path d="M340 1581 c0 -32 14 -41 63 -41 l50 0 -23 25 c-23 25 -90 36 -90 16z"/>
<path d="M489 1570 c13 -11 34 -20 47 -20 22 0 23 3 14 20 -8 15 -21 20 -48
20 l-37 -1 24 -19z"/>
<path d="M672 1581 c-42 -6 -42 -6 -27 -28 9 -13 31 -25 53 -28 20 -4 45 -9
55 -12 13 -3 17 2 17 21 0 26 -24 57 -43 54 -7 0 -31 -4 -55 -7z"/>
<path d="M208 1558 c-16 -5 -28 -13 -28 -16 0 -15 44 -33 92 -39 l51 -6 -7 29
c-4 16 -13 32 -19 36 -16 10 -56 9 -89 -4z"/>
<path d="M1722 1547 c-22 -23 -30 -67 -13 -67 14 0 41 30 41 45 0 7 3 20 6 29
9 23 -9 19 -34 -7z"/>
<path d="M1787 1548 c-2 -13 -8 -30 -11 -39 -6 -14 -2 -16 21 -11 32 6 43 18
43 50 0 17 -6 22 -24 22 -16 0 -25 -7 -29 -22z"/>
<path d="M1065 1529 c-5 -15 -1 -28 14 -42 18 -19 21 -19 27 -4 9 24 -4 67
-21 67 -7 0 -17 -10 -20 -21z"/>
<path d="M350 1508 c0 -25 15 -36 50 -38 51 -3 52 -2 34 25 -12 19 -25 25 -50
25 -21 0 -34 -5 -34 -12z"/>
<path d="M1630 1513 c-8 -4 -42 -33 -75 -65 l-60 -58 43 0 c34 0 49 7 82 36
29 26 40 44 40 65 0 30 -3 32 -30 22z"/>
<path d="M501 1484 c79 -89 95 -102 132 -107 20 -3 37 -3 37 1 0 4 -26 33 -57
64 -44 43 -68 58 -98 64 l-40 7 26 -29z"/>
<path d="M940 1485 c1 -28 19 -65 34 -65 13 0 5 36 -14 65 l-20 30 0 -30z"/>
<path d="M1930 1493 l-35 -15 34 -14 c45 -19 58 -18 72 7 9 17 8 23 -2 30 -18
11 -27 10 -69 -8z"/>
<path d="M1525 1495 c-5 -2 -29 -9 -52 -15 -33 -8 -43 -16 -52 -42 -15 -41
-14 -45 8 -51 14 -3 36 12 77 54 51 51 56 67 19 54z"/>
<path d="M637 1469 c19 -20 25 -21 49 -10 33 14 31 16 -26 25 l-45 7 22 -22z"/>
<path d="M187 1473 c-18 -5 -18 -6 -1 -24 17 -19 64 -27 64 -11 0 9 -34 43
-41 41 -2 -1 -12 -3 -22 -6z"/>
<path d="M279 1456 c14 -14 34 -26 45 -26 20 0 20 0 1 19 -11 10 -31 22 -45
26 l-25 7 24 -26z"/>
<path d="M1140 1473 c0 -5 -5 -25 -9 -47 l-9 -38 29 28 c27 26 28 29 12 46
-18 20 -23 22 -23 11z"/>
<path d="M1038 1453 c14 -25 15 -108 2 -173 -6 -36 -4 -52 11 -82 21 -41 24
-68 9 -68 -5 0 -10 6 -10 14 0 23 -78 83 -116 91 -20 3 -43 9 -52 12 -12 4
-14 3 -7 -4 6 -6 27 -16 48 -23 22 -7 48 -26 65 -48 24 -32 27 -44 27 -113 0
-61 -4 -82 -17 -96 -17 -16 -18 -16 -18 0 0 22 -3 22 -50 -8 -22 -14 -52 -25
-67 -25 -27 1 -26 2 12 22 49 26 35 33 -41 19 -75 -14 -152 -13 -244 3 -63 12
-96 12 -205 0 -71 -8 -148 -14 -170 -15 -38 -1 -37 -2 18 -13 48 -9 56 -13 45
-24 -10 -10 -3 -10 26 2 54 22 286 18 286 -5 0 -5 -33 -10 -72 -10 -105 -2
-155 -16 -61 -18 61 -1 71 -3 66 -17 -5 -13 1 -12 32 5 45 24 113 36 146 26
20 -7 21 -8 5 -17 -9 -5 -56 -23 -103 -39 -81 -27 -91 -28 -151 -18 -35 6 -89
9 -118 5 -38 -4 -65 -2 -90 9 -48 20 -51 19 -23 -5 l24 -19 -30 -2 c-16 -1 26
-6 95 -9 125 -8 200 -23 200 -40 0 -6 -10 -20 -21 -31 -18 -18 -29 -20 -63
-15 -22 3 -59 8 -81 11 l-40 5 40 -15 c22 -8 47 -18 55 -21 22 -9 -67 -43
-113 -43 -25 -1 -36 -5 -31 -12 3 -6 0 -16 -7 -21 -10 -7 -9 -8 6 -3 10 3 38
9 62 12 l42 6 -10 -38 c-14 -49 -4 -57 11 -8 7 21 19 46 27 55 19 22 107 52
111 38 7 -19 19 -10 50 39 22 36 44 57 81 75 28 15 56 26 63 26 6 0 31 9 55
21 52 25 95 22 48 -4 -43 -23 -12 -21 35 3 22 11 52 20 67 20 27 -1 27 -1 8
-16 -11 -9 -42 -27 -70 -41 -92 -48 -30 -34 78 17 101 48 137 59 137 43 0 -5
-46 -36 -101 -70 l-101 -63 -91 -1 c-51 -1 -81 -3 -67 -6 14 -2 55 -11 91 -19
l67 -16 53 29 c30 15 57 29 62 31 4 2 7 -5 7 -16 0 -11 -17 -35 -38 -54 -31
-28 -55 -38 -140 -57 -56 -13 -128 -26 -160 -30 -55 -7 -64 -12 -150 -86 -51
-44 -86 -81 -79 -83 8 -2 12 -16 10 -40 -3 -35 -2 -34 20 20 17 42 34 66 69
92 50 39 87 56 119 56 18 0 16 -7 -22 -80 -39 -76 -65 -106 -134 -157 -52 -38
-10 -25 51 16 57 39 59 39 64 18 5 -18 8 -14 19 23 7 25 29 71 49 104 30 46
45 61 77 72 64 22 65 21 65 -53 l0 -68 -63 -65 c-86 -90 -101 -112 -44 -67 27
22 54 36 62 33 10 -3 15 1 15 11 0 10 13 31 29 48 24 25 31 43 39 109 11 80
17 91 61 102 38 11 58 -49 25 -76 -8 -8 -20 -23 -26 -34 l-11 -21 24 21 c43
38 49 38 64 0 8 -19 15 -37 15 -39 0 -2 -34 -33 -75 -68 -41 -35 -75 -70 -75
-79 0 -27 -30 -59 -78 -85 -43 -23 -44 -25 -14 -19 25 4 32 2 32 -10 0 -9 5
-16 10 -16 6 0 10 9 10 20 0 11 18 38 40 60 22 22 40 47 40 55 0 8 19 27 43
43 73 49 70 49 62 1 -4 -28 -26 -74 -61 -126 -59 -91 -65 -104 -32 -73 28 26
36 25 49 -2 8 -19 8 -17 4 13 -4 27 0 40 16 58 12 12 22 21 24 19 2 -2 20 -30
40 -63 20 -33 35 -53 32 -45 -2 8 -12 38 -22 65 -16 45 -16 55 -4 100 l15 50
47 -87 c26 -47 47 -98 47 -113 0 -22 3 -25 13 -16 10 8 17 7 26 -2 7 -6 -4 24
-24 68 -20 44 -39 86 -42 93 -4 10 4 9 33 -3 22 -10 48 -19 59 -22 16 -4 17
-3 5 6 -13 9 -13 15 4 46 11 19 23 35 27 35 13 0 20 -95 10 -140 -16 -67 -13
-70 15 -17 l25 47 24 -17 c17 -13 22 -25 19 -43 -5 -22 -4 -23 6 -7 11 17 13
17 38 1 15 -9 2 10 -30 42 -49 52 -57 65 -63 112 -4 28 -4 52 -1 52 4 0 28
-15 56 -33 39 -26 55 -45 80 -97 16 -36 28 -52 25 -36 -6 27 -5 28 22 22 15
-4 33 -14 40 -22 6 -9 14 -11 17 -6 3 6 16 8 29 6 12 -3 -11 11 -51 30 -58 28
-75 42 -87 68 -9 23 -49 59 -133 122 l-121 89 38 56 c21 31 38 67 37 80 -2 36
19 36 44 1 20 -28 21 -35 10 -81 -16 -65 -7 -73 15 -15 16 42 20 45 44 39 14
-3 29 -7 32 -9 3 -2 14 -39 24 -84 17 -72 23 -84 57 -111 25 -20 38 -39 38
-54 0 -27 17 -43 22 -20 2 12 17 5 63 -27 56 -39 54 -35 -37 51 -73 69 -98 99
-98 118 0 18 4 23 18 19 57 -16 105 -27 108 -23 6 6 -36 24 -87 37 -40 10 -48
16 -53 42 -3 17 -6 34 -6 38 0 5 30 -3 66 -16 37 -13 68 -24 70 -24 11 0 62
-96 85 -160 26 -71 28 -73 28 -36 l1 38 27 -17 c89 -59 97 -58 31 4 -43 40
-80 87 -102 127 l-34 64 32 0 c21 0 46 -12 76 -36 25 -20 56 -44 68 -55 13
-10 30 -40 37 -66 10 -37 13 -42 14 -20 1 30 4 32 33 16 38 -20 -32 57 -113
126 -61 52 -84 65 -110 65 -19 0 -92 14 -164 30 -123 28 -132 32 -167 70 -36
37 -49 70 -29 70 5 0 32 -14 59 -31 l49 -30 83 15 c46 9 86 18 88 21 3 3 -30
5 -73 5 -78 0 -80 1 -172 55 -50 31 -95 60 -98 65 -13 21 36 8 120 -30 48 -23
89 -39 91 -37 2 2 -23 19 -56 37 -96 54 -78 63 38 18 61 -24 83 -17 26 8 -29
13 -34 18 -21 21 10 3 42 -7 71 -21 29 -14 59 -26 66 -26 7 0 37 -7 65 -16 49
-16 55 -21 81 -75 20 -44 31 -56 40 -48 8 7 31 4 75 -8 54 -16 67 -24 93 -62
54 -76 57 -80 46 -48 -5 16 -15 38 -21 49 -11 20 -9 20 27 15 35 -6 33 -4 -26
25 l-65 31 49 14 c43 13 53 13 89 -1 39 -15 39 -15 22 4 -18 20 -18 21 1 34
16 13 9 13 -56 1 -147 -26 -144 -26 -197 7 l-48 31 27 9 c21 7 37 4 78 -17 65
-33 76 -26 19 12 l-43 28 125 5 c68 3 105 7 82 8 -52 3 -62 16 -23 32 45 19
30 23 -20 5 -23 -8 -70 -15 -103 -15 -33 0 -88 -5 -122 -12 -60 -11 -67 -10
-157 21 -124 43 -134 55 -38 47 46 -4 87 -14 108 -26 33 -20 33 -20 27 0 -6
19 -2 20 62 20 48 0 63 3 53 10 -8 5 -53 10 -99 10 -122 0 -91 18 44 26 87 5
119 3 154 -10 53 -20 62 -20 37 -1 -18 14 -15 15 35 16 97 2 113 17 19 19 -47
0 -106 5 -132 9 -28 5 -86 2 -145 -5 -54 -7 -123 -13 -153 -14 -30 0 -75 -6
-100 -14 -25 -7 -75 -12 -113 -10 -42 2 -66 0 -62 -6 11 -18 -10 -11 -45 15
-39 29 -44 27 -31 -9 12 -29 1 -34 -23 -10 -11 10 -16 34 -16 75 0 61 19 85
21 27 l1 -33 7 35 c10 47 27 77 56 96 50 33 23 34 -37 2 -69 -36 -74 -48 -79
-155 -4 -88 -19 -59 -19 36 l0 90 45 65 c37 55 45 74 45 111 0 31 10 65 30
105 17 33 30 62 30 64 0 3 -20 -17 -45 -43 -37 -40 -47 -59 -56 -107 -10 -54
-31 -94 -49 -94 -17 0 -38 77 -33 122 6 51 -10 109 -34 130 -15 12 -15 11 -5
-9z m170 -665 c9 -20 9 -33 1 -55 l-11 -28 -24 28 c-28 32 -34 83 -8 73 9 -4
13 -2 8 5 -4 7 -1 10 7 7 8 -2 20 -16 27 -30z m-124 6 c11 -28 6 -73 -11 -109
-9 -19 -19 -35 -23 -35 -11 0 -30 65 -30 102 0 26 5 38 23 46 30 15 34 14 41
-4z m-54 -134 c6 -11 10 -26 9 -33 -2 -6 1 -26 5 -44 5 -20 3 -40 -5 -55 l-12
-23 22 20 c18 16 22 27 17 55 -4 29 0 41 25 69 l31 33 21 -20 c23 -23 20 -34
-23 -99 l-21 -32 27 -23 c15 -13 43 -37 62 -53 l34 -31 -28 -57 c-16 -31 -33
-57 -39 -57 -29 0 -83 52 -103 99 -11 28 -19 51 -17 51 3 0 30 -11 61 -25 32
-14 59 -23 61 -21 3 3 -29 24 -71 48 -70 40 -78 47 -96 95 -19 50 -19 55 -3
88 19 40 28 43 43 15z"/>
<path d="M1750 1458 c-50 -9 -100 -39 -100 -60 0 -4 26 -8 58 -8 51 0 62 4 85
28 26 27 36 53 20 51 -5 -1 -33 -6 -63 -11z"/>
<path d="M1358 1448 c-24 -8 -28 -15 -28 -45 0 -31 2 -34 16 -22 16 13 48 69
42 74 -2 1 -15 -2 -30 -7z"/>
<path d="M380 1437 c0 -8 29 -33 64 -56 50 -33 70 -40 90 -35 14 3 26 12 26
18 0 25 -55 64 -100 71 -25 3 -53 9 -62 11 -11 3 -18 0 -18 -9z"/>
<path d="M798 1433 c6 -10 20 -27 32 -38 l22 -20 -4 35 c-3 30 -7 35 -31 38
-25 3 -27 1 -19 -15z"/>
<path d="M1841 1416 l-24 -26 39 0 c38 0 85 22 73 34 -3 3 -19 8 -35 12 -23 4
-34 0 -53 -20z"/>
<path d="M690 1422 c0 -15 41 -42 63 -42 35 0 39 10 13 31 -24 19 -76 26 -76
11z"/>
<path d="M1973 1409 c-18 -12 -33 -23 -33 -25 0 -2 22 -4 49 -4 41 0 51 4 65
25 16 25 16 25 -16 25 -18 0 -48 -10 -65 -21z"/>
<path d="M890 1384 c0 -33 5 -45 25 -58 32 -21 35 -20 35 9 0 14 -13 39 -30
57 l-29 33 -1 -41z"/>
<path d="M994 1395 c-5 -17 -7 -48 -4 -70 l6 -40 13 43 c8 28 9 53 3 70 l-8
26 -10 -29z"/>
<path d="M260 1404 c0 -18 40 -33 85 -33 l50 0 -24 19 c-22 19 -111 30 -111
14z"/>
<path d="M1276 1385 c-9 -13 -16 -34 -16 -46 0 -21 1 -21 18 -6 15 14 30 77
18 77 -2 0 -11 -11 -20 -25z"/>
<path d="M131 1391 c-23 -15 24 -32 77 -29 l47 3 -32 18 c-35 19 -70 22 -92 8z"/>
<path d="M1389 1344 c-24 -12 -55 -61 -45 -71 4 -4 106 65 106 72 0 10 -41 10
-61 -1z"/>
<path d="M1590 1351 c0 -5 7 -14 15 -21 12 -10 21 -8 47 9 l33 21 -47 0 c-27
0 -48 -4 -48 -9z"/>
<path d="M1765 1348 c-20 -59 -1 -69 39 -20 l28 32 -31 0 c-18 0 -34 -6 -36
-12z"/>
<path d="M1987 1312 c-41 -42 -45 -52 -21 -52 13 0 59 32 119 82 5 4 -7 8 -26
8 -27 0 -43 -8 -72 -38z"/>
<path d="M720 1331 c0 -14 77 -41 118 -41 l37 0 -37 25 c-37 25 -118 36 -118
16z"/>
<path d="M1672 1310 c-24 -17 -42 -34 -39 -36 3 -3 22 -2 42 2 37 7 49 20 43
49 -2 14 -10 11 -46 -15z"/>
<path d="M255 1295 c34 -30 45 -34 75 -29 48 9 49 12 17 40 -22 19 -39 24 -80
24 l-52 -1 40 -34z"/>
<path d="M360 1323 c0 -5 15 -18 34 -31 28 -19 44 -23 97 -20 l64 3 -47 28
c-34 20 -60 27 -97 27 -28 0 -51 -3 -51 -7z"/>
<path d="M567 1321 c-16 -6 -17 -9 -4 -19 11 -10 18 -8 32 8 19 21 8 26 -28
11z"/>
<path d="M1471 1302 c-22 -14 -41 -30 -41 -34 0 -5 26 -8 59 -8 75 0 95 18 53
49 l-29 20 -42 -27z"/>
<path d="M1821 1290 l-32 -40 53 0 c49 0 55 3 76 33 12 18 22 36 22 40 0 4
-19 7 -43 7 -39 0 -47 -4 -76 -40z"/>
<path d="M638 1304 c-36 -19 -35 -26 5 -46 24 -12 46 -14 92 -9 l60 6 -62 33
c-34 17 -64 32 -65 32 -2 -1 -15 -8 -30 -16z"/>
<path d="M113 1303 c-13 -2 -23 -7 -23 -11 1 -4 23 -24 49 -44 33 -25 60 -38
80 -38 41 0 40 18 -7 63 -36 35 -50 40 -99 30z"/>
<path d="M1269 1267 c-19 -15 -43 -57 -35 -64 8 -8 56 44 56 62 0 18 0 18 -21
2z"/>
<path d="M2033 1255 c-23 -20 -25 -24 -10 -25 21 0 77 30 77 42 0 17 -40 7
-67 -17z"/>
<path d="M1559 1230 l-24 -19 26 -1 c15 0 37 9 50 20 l24 19 -26 1 c-15 0 -37
-9 -50 -20z"/>
<path d="M485 1220 c10 -11 26 -20 37 -20 11 0 18 7 18 20 0 16 -7 20 -37 20
-35 0 -36 0 -18 -20z"/>
<path d="M570 1210 c0 -35 21 -40 59 -14 l24 17 -24 13 c-41 23 -59 18 -59
-16z"/>
<path d="M1641 1212 l-20 -28 21 -13 c18 -11 23 -10 44 16 30 36 30 53 0 53
-16 0 -32 -10 -45 -28z"/>
<path d="M320 1219 c0 -17 53 -39 95 -39 51 0 55 7 20 33 -24 18 -115 23 -115
6z"/>
<path d="M1359 1213 c-25 -18 -59 -56 -55 -61 9 -8 55 20 70 43 22 33 17 40
-15 18z"/>
<path d="M1756 1203 c-7 -18 6 -30 42 -39 16 -5 30 0 48 17 l26 24 -24 6 c-45
13 -86 10 -92 -8z"/>
<path d="M92 1190 c12 -19 68 -29 68 -12 0 17 -25 32 -52 32 -26 0 -27 -2 -16
-20z"/>
<path d="M780 1185 c23 -22 28 -23 68 -13 23 6 42 14 42 18 0 11 -39 20 -90
20 l-45 0 25 -25z"/>
<path d="M1919 1193 c-13 -15 -11 -16 26 -10 22 4 46 7 53 7 6 0 12 5 12 10 0
17 -76 12 -91 -7z"/>
<path d="M2060 1202 c0 -18 15 -22 46 -12 16 4 22 9 14 9 -8 1 -25 4 -37 7
-13 4 -23 2 -23 -4z"/>
<path d="M702 1193 c-19 -8 -3 -23 25 -23 21 0 24 2 13 15 -13 16 -17 17 -38
8z"/>
<path d="M1402 1188 c-7 -7 -12 -16 -12 -20 0 -16 48 -8 71 12 l24 19 -35 1
c-20 0 -41 -5 -48 -12z"/>
<path d="M1953 1138 l-27 -28 23 0 c20 0 91 35 91 45 0 1 -13 5 -30 7 -23 3
-36 -2 -57 -24z"/>
<path d="M226 1151 c-17 -7 -17 -8 6 -23 23 -15 27 -15 56 4 18 11 32 22 32
24 0 7 -74 3 -94 -5z"/>
<path d="M1539 1140 c24 -21 57 -25 79 -12 17 12 -29 32 -71 32 l-32 -1 24
-19z"/>
<path d="M415 1130 c10 -11 24 -20 32 -20 11 0 11 4 1 20 -7 11 -21 20 -32 20
-18 0 -19 -1 -1 -20z"/>
<path d="M620 1142 c0 -5 11 -19 25 -32 26 -24 26 -24 60 -6 19 11 35 22 35
26 0 4 -21 10 -46 14 -61 8 -74 8 -74 -2z"/>
<path d="M901 1141 c-12 -8 -9 -12 13 -22 15 -7 34 -24 41 -38 l14 -26 1 31
c0 18 -8 38 -18 47 -21 19 -31 21 -51 8z"/>
<path d="M1844 1128 c-48 -35 -49 -38 -23 -38 13 0 40 14 59 30 31 26 32 29
14 30 -12 0 -34 -10 -50 -22z"/>
<path d="M101 1126 c-19 -23 35 -35 57 -12 15 15 15 16 0 16 -9 0 -23 2 -31 5
-7 3 -19 -1 -26 -9z"/>
<path d="M505 1120 c10 -11 31 -20 47 -20 26 0 28 2 18 20 -8 14 -21 20 -47
20 -35 0 -36 0 -18 -20z"/>
<path d="M331 1116 c-23 -13 -23 -13 24 -30 27 -9 50 -16 52 -16 2 0 -6 14
-19 30 -25 34 -25 34 -57 16z"/>
<path d="M1437 1116 c-16 -13 -13 -14 28 -18 51 -4 57 3 20 20 -31 14 -26 14
-48 -2z"/>
<path d="M1676 1114 c-9 -23 -8 -24 25 -24 34 0 69 15 69 30 0 18 -87 12 -94
-6z"/>
<path d="M2062 1111 c-10 -6 -5 -11 19 -20 42 -14 42 -14 29 9 -11 21 -27 25
-48 11z"/>
<path d="M766 1095 c-18 -14 -15 -15 40 -15 54 1 57 2 40 15 -25 19 -55 19
-80 0z"/>
<path d="M1282 1090 c-15 -24 -10 -25 28 -5 36 19 38 25 7 25 -12 0 -28 -9
-35 -20z"/>
<path d="M1936 1082 c-28 -4 -28 -4 -7 -19 15 -10 33 -13 57 -8 59 11 16 34
-50 27z"/>
<path d="M484 1055 c-18 -13 -16 -14 20 -15 33 0 37 2 26 15 -15 19 -21 19
-46 0z"/>
<path d="M1611 1049 c-13 -11 -21 -22 -17 -26 10 -10 78 26 71 37 -9 15 -27
12 -54 -11z"/>
<path d="M115 1050 c-3 -5 1 -10 10 -10 9 0 13 5 10 10 -3 6 -8 10 -10 10 -2
0 -7 -4 -10 -10z"/>
<path d="M1380 1051 c-30 -8 -15 -16 52 -26 33 -5 54 -2 77 9 17 9 31 19 31
21 0 7 -131 4 -160 -4z"/>
<path d="M1824 1039 c19 -15 34 -19 54 -14 l27 7 -25 13 c-14 8 -38 14 -54 15
l-29 0 27 -21z"/>
<path d="M195 1039 c-4 -6 -5 -13 -2 -16 7 -7 27 6 27 18 0 12 -17 12 -25 -2z"/>
<path d="M312 1043 c-23 -9 -1 -23 36 -23 35 1 36 2 18 15 -20 15 -32 17 -54
8z"/>
<path d="M620 1041 c0 -10 25 -21 48 -21 15 1 14 3 -2 15 -22 17 -46 20 -46 6z"/>
<path d="M1733 1043 c-23 -9 -14 -20 12 -15 14 2 22 8 19 13 -6 10 -12 10 -31
2z"/>
<path d="M805 1030 c-15 -7 -10 -9 23 -9 23 -1 42 4 42 9 0 12 -37 12 -65 0z"/>
<path d="M2055 1030 c-17 -6 -15 -8 13 -15 39 -8 48 -4 24 11 -9 6 -26 8 -37
4z"/>
<path d="M1252 1011 c-16 -10 16 -21 58 -21 l25 1 -25 14 c-29 17 -40 18 -58
6z"/>
</g>
</svg>
